<svg width="49" height="49" viewBox="0 0 49 49" fill="none" xmlns="http://www.w3.org/2000/svg">
    <rect x="0.96084" y="0.708398" width="46.8" height="46.8" rx="23.4" fill="#FCF0EE"/>
    <rect x="0.96084" y="0.708398" width="46.8" height="46.8" rx="23.4" stroke="#F39687" stroke-width="1.2"/>
    <path d="M21.2455 14.4522C16.5695 15.5133 13.0788 19.695 13.0788 24.6921C13.0788 25.2883 13.1285 25.873 13.224 26.4421M21.2455 14.4522L17.7455 13.0254M21.2455 14.4522L20.0788 17.6921M32.9874 29.3587C33.686 27.9529 34.0788 26.3683 34.0788 24.6921C34.0788 19.4893 30.2948 15.1704 25.3288 14.3372M32.9874 29.3587L36.4121 27.0254M32.9874 29.3587L31.1621 25.8587M14.8469 30.5254C16.7305 33.3394 19.9383 35.1921 23.5788 35.1921C26.2681 35.1921 28.7211 34.181 30.5788 32.5184M14.8469 30.5254H18.9121M14.8469 30.5254V34.6087" stroke="#F39687" stroke-width="1.75" stroke-linecap="round" stroke-linejoin="round"/>
    <circle cx="24.1623" cy="24.6917" r="4.08333" fill="#F39687"/>
</svg>
