<svg width="20" height="20" viewBox="0 0 20 20" fill="none" xmlns="http://www.w3.org/2000/svg">
    <g clip-path="url(#clip0_3998_1145)">
        <path d="M14.1942 17.7078C13.2193 19.1449 11.626 20.034 9.7232 19.9991C5.70024 19.9083 3.28689 15.4771 5.32306 12.0062L9.23235 5.34286C9.42109 5.02044 9.79766 4.91622 10.1079 5.02978C10.2568 5.08392 10.3903 5.18814 10.4811 5.34286L14.3904 12.0062C15.5069 13.9092 15.2855 16.1011 14.1942 17.7078V17.7078ZM19.3878 6.04173C18.9412 7.06848 17.9506 7.77696 16.6948 7.74598C14.5439 7.67883 13.2674 5.30458 14.3562 3.44834L16.1695 0.357248C16.3584 0.0352562 16.735 -0.069392 17.0451 0.0445921C17.1942 0.098303 17.328 0.202522 17.4185 0.357248L19.2318 3.44834C19.728 4.29415 19.7329 5.24794 19.3878 6.04173H19.3878ZM4.85931 9.09375C4.50868 10.0365 3.62931 10.7346 2.50978 10.7346C0.542324 10.7346 -0.624354 8.59008 0.350801 6.92782L1.95666 4.19036C2.13748 3.88232 2.51068 3.79884 2.79556 3.94013C2.90181 3.99216 2.99548 4.07607 3.06259 4.19036L4.66845 6.92782C5.08118 7.63122 5.11001 8.4184 4.85931 9.09375Z" fill="#F44545"/>
        <path d="M14.1938 17.7079C13.4453 18.1698 12.5592 18.4503 11.5774 18.4727C7.42197 18.5871 4.81963 14.0435 6.91006 10.4798L10.1076 5.02983C10.2565 5.08401 10.39 5.18823 10.4808 5.34296L14.3901 12.0064C15.5066 13.9093 15.2852 16.1012 14.1938 17.708V17.7079ZM19.3875 6.04183C19.1083 6.14729 18.8042 6.20952 18.4801 6.21956C18.4476 6.2205 18.4141 6.22128 18.3812 6.22128C18.3478 6.22128 18.3148 6.2205 18.2818 6.2196C16.1311 6.15245 14.8541 3.77819 15.9434 1.92241L17.0448 0.0446777C17.1939 0.0983887 17.3277 0.202607 17.4182 0.357334L19.2315 3.44843C19.7278 4.29425 19.7327 5.24804 19.3875 6.04183ZM4.85896 9.09386C4.6481 9.16026 4.42224 9.19964 4.18455 9.20694C4.12607 9.20879 4.06755 9.20879 4.00908 9.20694C2.10447 9.14757 0.97365 7.04522 1.93799 5.40155L2.79521 3.94022C2.90146 3.99226 2.99513 4.07616 3.06224 4.19046L4.6681 6.92792C5.08084 7.63132 5.10967 8.41851 4.85896 9.09386Z" fill="#FB5858"/>
    </g>
    <defs>
        <clipPath id="clip0_3998_1145">
            <rect width="20" height="20" fill="white"/>
        </clipPath>
    </defs>
</svg>
