<svg width="25" height="25" viewBox="0 0 25 25" fill="none" xmlns="http://www.w3.org/2000/svg">
    <path d="M18.8281 2.95879C19.442 2.45815 20.3477 2.49402 20.9199 3.06622L21.542 3.68829L21.6494 3.80743C22.1165 4.38036 22.1166 5.20722 21.6494 5.78008L21.542 5.89922L18.1933 9.24786C17.7428 9.69837 17.1841 10.0233 16.5732 10.1932L16.3086 10.2566L14.5976 10.5984C14.4339 10.6311 14.2646 10.5797 14.1465 10.4617C14.0284 10.3436 13.9772 10.1743 14.0097 10.0106L14.3515 8.29962L14.415 8.03497C14.5849 7.424 14.9098 6.86546 15.3603 6.41485L18.709 3.06622L18.8281 2.95879Z" fill="#EB8C91"/>
    <path d="M14.1903 19.5651C14 19.1057 14 18.5233 14 17.3584C14 16.1935 14 15.6111 14.1903 15.1517C14.444 14.5391 14.9307 14.0524 15.5433 13.7987C16.0027 13.6084 16.5851 13.6084 17.75 13.6084C18.9149 13.6084 19.4973 13.6084 19.9567 13.7987C20.5693 14.0524 21.056 14.5391 21.3097 15.1517C21.5 15.6111 21.5 16.1935 21.5 17.3584C21.5 18.5233 21.5 19.1057 21.3097 19.5651C21.056 20.1777 20.5693 20.6644 19.9567 20.9181C19.4973 21.1084 18.9149 21.1084 17.75 21.1084C16.5851 21.1084 16.0027 21.1084 15.5433 20.9181C14.9307 20.6644 14.444 20.1777 14.1903 19.5651Z" fill="#EB8C91"/>
    <path d="M3.6903 19.5651C3.5 19.1057 3.5 18.5233 3.5 17.3584C3.5 16.1935 3.5 15.6111 3.6903 15.1517C3.94404 14.5391 4.43072 14.0524 5.04329 13.7987C5.50272 13.6084 6.08515 13.6084 7.25 13.6084C8.41485 13.6084 8.99728 13.6084 9.45671 13.7987C10.0693 14.0524 10.556 14.5391 10.8097 15.1517C11 15.6111 11 16.1935 11 17.3584C11 18.5233 11 19.1057 10.8097 19.5651C10.556 20.1777 10.0693 20.6644 9.45671 20.9181C8.99728 21.1084 8.41485 21.1084 7.25 21.1084C6.08515 21.1084 5.50272 21.1084 5.04329 20.9181C4.43072 20.6644 3.94404 20.1777 3.6903 19.5651Z" fill="#EB8C91"/>
    <path d="M3.6903 9.06511C3.5 8.60568 3.5 8.02325 3.5 6.8584C3.5 5.69355 3.5 5.11112 3.6903 4.65169C3.94404 4.03912 4.43072 3.55244 5.04329 3.2987C5.50272 3.1084 6.08515 3.1084 7.25 3.1084C8.41485 3.1084 8.99728 3.1084 9.45671 3.2987C10.0693 3.55244 10.556 4.03912 10.8097 4.65169C11 5.11112 11 5.69355 11 6.8584C11 8.02325 11 8.60568 10.8097 9.06511C10.556 9.67768 10.0693 10.1644 9.45671 10.4181C8.99728 10.6084 8.41485 10.6084 7.25 10.6084C6.08515 10.6084 5.50272 10.6084 5.04329 10.4181C4.43072 10.1644 3.94404 9.67768 3.6903 9.06511Z" fill="#EB8C91"/>
</svg>
