<svg width="25" height="25" viewBox="0 0 25 25" fill="none" xmlns="http://www.w3.org/2000/svg">
    <path d="M18.3091 2.76471C19.0211 2.1839 20.0721 2.22596 20.7358 2.88971L21.3579 3.51178L21.4829 3.64948C22.025 4.31409 22.025 5.27394 21.4829 5.93854L21.3579 6.07623L18.0093 9.42487C17.5282 9.90589 16.932 10.2532 16.2798 10.4346L15.9966 10.502L14.2866 10.8438C14.0407 10.893 13.7862 10.8161 13.6089 10.6387C13.4316 10.4614 13.3546 10.2069 13.4038 9.961L13.7456 8.25104L13.813 7.96784C13.9944 7.31558 14.3417 6.71943 14.8227 6.23834L18.1714 2.88971L18.3091 2.76471ZM19.6753 3.95026C19.5684 3.84336 19.4032 3.83009 19.2817 3.91022L19.2319 3.95026L15.8833 7.29889C15.5855 7.59681 15.3706 7.96618 15.2583 8.37018L15.2163 8.54498L15.0942 9.15241L15.7026 9.03131L15.8774 8.98932C16.2814 8.87703 16.6508 8.66218 16.9487 8.36432L20.2974 5.01569L20.3374 4.96588C20.4061 4.86183 20.406 4.72619 20.3374 4.62213L20.2974 4.57233L19.6753 3.95026Z" fill="#888888"/>
    <path d="M13.8295 19.5651C13.6392 19.1057 13.6392 18.5233 13.6392 17.3584C13.6392 16.1935 13.6392 15.6111 13.8295 15.1517C14.0832 14.5391 14.5699 14.0524 15.1825 13.7987C15.6419 13.6084 16.2243 13.6084 17.3892 13.6084C18.5541 13.6084 19.1365 13.6084 19.5959 13.7987C20.2085 14.0524 20.6952 14.5391 20.9489 15.1517C21.1392 15.6111 21.1392 16.1935 21.1392 17.3584C21.1392 18.5233 21.1392 19.1057 20.9489 19.5651C20.6952 20.1777 20.2085 20.6644 19.5959 20.9181C19.1365 21.1084 18.5541 21.1084 17.3892 21.1084C16.2243 21.1084 15.6419 21.1084 15.1825 20.9181C14.5699 20.6644 14.0832 20.1777 13.8295 19.5651Z" stroke="#888888" stroke-width="1.7" stroke-linecap="square" stroke-linejoin="round"/>
    <path d="M3.32946 19.5651C3.13916 19.1057 3.13916 18.5233 3.13916 17.3584C3.13916 16.1935 3.13916 15.6111 3.32946 15.1517C3.5832 14.5391 4.06988 14.0524 4.68245 13.7987C5.14188 13.6084 5.72431 13.6084 6.88916 13.6084C8.05401 13.6084 8.63644 13.6084 9.09587 13.7987C9.70844 14.0524 10.1952 14.5391 10.4489 15.1517C10.6392 15.6111 10.6392 16.1935 10.6392 17.3584C10.6392 18.5233 10.6392 19.1057 10.4489 19.5651C10.1952 20.1777 9.70844 20.6644 9.09587 20.9181C8.63644 21.1084 8.05401 21.1084 6.88916 21.1084C5.72431 21.1084 5.14188 21.1084 4.68245 20.9181C4.06988 20.6644 3.5832 20.1777 3.32946 19.5651Z" stroke="#888888" stroke-width="1.7" stroke-linecap="square" stroke-linejoin="round"/>
    <path d="M3.32946 9.06511C3.13916 8.60568 3.13916 8.02325 3.13916 6.8584C3.13916 5.69355 3.13916 5.11112 3.32946 4.65169C3.5832 4.03912 4.06988 3.55244 4.68245 3.2987C5.14188 3.1084 5.72431 3.1084 6.88916 3.1084C8.05401 3.1084 8.63644 3.1084 9.09587 3.2987C9.70844 3.55244 10.1952 4.03912 10.4489 4.65169C10.6392 5.11112 10.6392 5.69355 10.6392 6.8584C10.6392 8.02325 10.6392 8.60568 10.4489 9.06511C10.1952 9.67768 9.70844 10.1644 9.09587 10.4181C8.63644 10.6084 8.05401 10.6084 6.88916 10.6084C5.72431 10.6084 5.14188 10.6084 4.68245 10.4181C4.06988 10.1644 3.5832 9.67768 3.32946 9.06511Z" stroke="#888888" stroke-width="1.7" stroke-linecap="square" stroke-linejoin="round"/>
</svg>
