<svg width="20" height="20" viewBox="0 0 20 20" fill="none" xmlns="http://www.w3.org/2000/svg">
    <path d="M16.8508 3.11555L15.1753 0.219647C15.0141 -0.0591034 14.8303 -0.0869549 14.653 0.219529C14.6529 0.219569 14.6529 0.219647 14.6529 0.219647L12.9775 3.11555C12.1121 4.61144 13.1967 6.47969 14.9141 6.48238C16.6309 6.47969 17.7163 4.61168 16.8508 3.11555ZM14.1336 11.2956L9.80239 3.80933C9.80223 3.80914 9.802 3.80894 9.802 3.80875C9.22563 2.81242 8.72672 3.37043 8.5352 3.66406L8.45172 3.80847C8.45149 3.80855 8.45149 3.80875 8.45149 3.80875L4.12012 11.2956C1.88258 15.163 4.6868 19.9932 9.12676 20C10.1097 19.9985 11.1056 19.7487 12.0174 19.2211C14.7904 17.6166 15.7376 14.0685 14.1336 11.2956Z" fill="#FB5858"/>
    <path d="M13.7827 3.11551L15.3169 0.463748L15.1756 0.219647C15.0144 -0.0591034 14.8306 -0.0869549 14.6533 0.219529C14.6532 0.219569 14.6532 0.219647 14.6532 0.219647L12.9778 3.11555C12.0229 4.76609 13.4438 6.78961 15.3169 6.44515C13.7947 6.16492 13.0068 4.45664 13.7827 3.11551ZM4.92525 11.2956L9.25666 3.80871C9.25666 3.80871 9.25666 3.80851 9.25689 3.80844L9.34037 3.66402C9.38564 3.59461 9.44834 3.51051 9.52494 3.43554C9.07002 2.98972 8.69557 3.41875 8.53553 3.66402L8.45205 3.80844C8.45182 3.80851 8.45182 3.80871 8.45182 3.80871L4.12041 11.2956C2.51607 14.0685 3.46361 17.6166 6.2365 19.221C7.14842 19.7486 8.14424 19.9984 9.12705 19.9999C9.26107 19.9997 9.39529 19.9945 9.52947 19.985C5.27326 19.6834 2.7774 15.0079 4.92525 11.2956Z" fill="#F44545"/>
</svg>
