<svg width="49" height="49" viewBox="0 0 49 49" fill="none" xmlns="http://www.w3.org/2000/svg">
    <rect x="0.96084" y="0.708398" width="46.8" height="46.8" rx="23.4" fill="#FFD2BD"/>
    <rect x="0.96084" y="0.708398" width="46.8" height="46.8" rx="23.4" stroke="#D7866F" stroke-width="1.2"/>
    <path d="M17.9442 30.5249V27.0249M23.7775 30.5249V20.0249M29.6109 30.5249V25.8582" stroke="#D7866F" stroke-width="1.75" stroke-linecap="round"/>
    <path d="M35.4442 16.5249C35.4442 18.4579 33.8772 20.0249 31.9442 20.0249C30.0111 20.0249 28.4442 18.4579 28.4442 16.5249C28.4442 14.5919 30.0111 13.0249 31.9442 13.0249C33.8772 13.0249 35.4442 14.5919 35.4442 16.5249Z" stroke="#D7866F" stroke-width="1.75"/>
    <path d="M35.4389 22.9416C35.4389 22.9416 35.4442 23.3377 35.4442 24.1082C35.4442 29.333 35.4442 31.9453 33.8211 33.5685C32.1979 35.1916 29.5855 35.1916 24.3608 35.1916C19.1361 35.1916 16.5237 35.1916 14.9006 33.5685C13.2775 31.9453 13.2775 29.333 13.2775 24.1082C13.2775 18.8835 13.2775 16.2712 14.9006 14.6481C16.5237 13.0249 19.1361 13.0249 24.3608 13.0249L25.5275 13.0249" stroke="#D7866F" stroke-width="1.75" stroke-linecap="round" stroke-linejoin="round"/>
</svg>
