<svg width="21" height="21" viewBox="0 0 21 21" fill="none" xmlns="http://www.w3.org/2000/svg">
    <path d="M7.09852 13.8705C6.61952 13.3915 6.69914 11.3566 6.69914 11.3566M7.09852 13.8705C7.57752 14.3495 9.61243 14.2697 9.61243 14.2697M7.09852 13.8705L10.0275 10.9414M14.6233 6.34568C14.1443 5.86667 12.1093 5.94638 12.1093 5.94638M14.6233 6.34568C15.1023 6.82468 15.0225 8.85958 15.0225 8.85958M14.6233 6.34568L11.6942 9.27474" stroke="#333333" stroke-width="1.5" stroke-linecap="round" stroke-linejoin="round"/>
    <path d="M2.94418 10.1081C2.94418 6.37612 2.94418 4.51015 4.10355 3.35077C5.26292 2.19141 7.1289 2.19141 10.8608 2.19141C14.5928 2.19141 16.4588 2.19141 17.6182 3.35077C18.7775 4.51015 18.7775 6.37612 18.7775 10.1081C18.7775 13.84 18.7775 15.706 17.6182 16.8654C16.4588 18.0247 14.5928 18.0247 10.8608 18.0247C7.1289 18.0247 5.26292 18.0247 4.10355 16.8654C2.94418 15.706 2.94418 13.84 2.94418 10.1081Z" stroke="#333333" stroke-width="1.5"/>
</svg>
