<svg width="21" height="21" viewBox="0 0 21 21" fill="none" xmlns="http://www.w3.org/2000/svg">
    <path d="M2.52753 10.1082C2.52753 7.03388 2.52753 5.49674 3.20571 4.40713C3.45661 4.004 3.76829 3.65338 4.12662 3.3711C5.09516 2.60815 6.4615 2.60815 9.19419 2.60815H12.5275C15.2602 2.60815 16.6265 2.60815 17.5951 3.3711C17.9534 3.65338 18.2651 4.004 18.516 4.40713C19.1942 5.49674 19.1942 7.03388 19.1942 10.1082C19.1942 13.1824 19.1942 14.7196 18.516 15.8092C18.2651 16.2123 17.9534 16.5629 17.5951 16.8452C16.6265 17.6082 15.2602 17.6082 12.5275 17.6082H9.19419C6.4615 17.6082 5.09516 17.6082 4.12662 16.8452C3.76829 16.5629 3.45661 16.2123 3.20571 15.8092C2.52753 14.7196 2.52753 13.1824 2.52753 10.1082Z" stroke="#333333" stroke-width="1.5"/>
    <path d="M8.77753 2.60815V17.6082" stroke="#333333" stroke-width="1.5" stroke-linejoin="round"/>
    <path d="M5.02753 5.94141H5.86086M5.02753 8.44141H5.86086" stroke="#333333" stroke-width="1.5" stroke-linecap="round" stroke-linejoin="round"/>
</svg>
