<svg width="20" height="20" viewBox="0 0 20 20" fill="none" xmlns="http://www.w3.org/2000/svg">
    <path d="M9.25092 16.0721C8.6809 17.6047 7.25129 18.7396 5.43125 18.7396C2.23272 18.7396 0.336025 15.2533 1.92135 12.5509L4.53203 8.10056C4.82599 7.59976 5.43271 7.46405 5.89585 7.69375C6.06858 7.77834 6.22087 7.91475 6.32997 8.10056L8.94064 12.5509C9.61163 13.6944 9.65849 14.9742 9.25092 16.0721Z" fill="#F44545"/>
    <path d="M9.25001 16.0722C8.90721 16.1802 8.54003 16.2442 8.1536 16.2561C8.05854 16.2591 7.9634 16.2591 7.86834 16.2561C4.77198 16.1595 2.93358 12.7417 4.50132 10.0696L5.89493 7.69385C6.06767 7.77844 6.21995 7.91484 6.32905 8.10066L8.93973 12.551C9.61072 13.6945 9.65758 14.9743 9.25001 16.0722Z" fill="#FB5858"/>
    <path d="M13.9914 14.2589C15.9852 14.3108 17.5581 13.122 18.2672 11.399C18.8153 10.0669 18.8074 8.46642 18.0195 7.04707L15.1404 1.85999C14.9967 1.60034 14.7843 1.42546 14.5475 1.33533C14.0553 1.14405 13.4573 1.31966 13.1574 1.85999L10.2784 7.04707C8.54953 10.162 10.5763 14.1462 13.9914 14.2589Z" fill="#F44545"/>
    <path d="M16.8258 11.6988C17.3404 11.682 17.8233 11.5776 18.2666 11.4006C18.8147 10.0686 18.8068 8.46802 18.0189 7.04867L15.1399 1.86158C14.9962 1.60193 14.7837 1.42705 14.547 1.33691L12.7983 4.4879C11.0687 7.60204 13.0963 11.5862 16.5111 11.6989C16.5634 11.7004 16.6158 11.7017 16.6688 11.7017C16.7211 11.7017 16.7742 11.7004 16.8258 11.6988Z" fill="#FB5858"/>
</svg>
