<svg width="49" height="49" viewBox="0 0 49 49" fill="none" xmlns="http://www.w3.org/2000/svg">
    <rect x="0.96084" y="0.708398" width="46.8" height="46.8" rx="23.4" fill="#FFE5CB"/>
    <rect x="0.96084" y="0.708398" width="46.8" height="46.8" rx="23.4" stroke="#EB8C43" stroke-width="1.2"/>
    <path d="M16.3608 26.4419C15.5144 25.0515 15.0275 23.4223 15.0275 21.6806C15.0275 16.5782 19.2062 12.4419 24.3608 12.4419C29.5155 12.4419 33.6942 16.5782 33.6942 21.6806C33.6942 23.4223 33.2073 25.0515 32.3608 26.4419" stroke="#EB8C43" stroke-width="1.75" stroke-linecap="round"/>
    <path d="M18.9742 30.0561C18.867 29.7334 18.8134 29.5721 18.8197 29.4414C18.8329 29.1649 19.0072 28.9221 19.2643 28.8222C19.3859 28.7749 19.5554 28.7749 19.8943 28.7749H28.8273C29.1663 28.7749 29.3357 28.7749 29.4573 28.8222C29.7146 28.9221 29.8889 29.1649 29.902 29.4414C29.9082 29.5721 29.8547 29.7334 29.7475 30.0561C29.5494 30.6525 29.4503 30.9509 29.2976 31.1922C28.9776 31.6981 28.4759 32.0611 27.8965 32.2058C27.6199 32.2749 27.3067 32.2749 26.6803 32.2749H22.0414C21.415 32.2749 21.1018 32.2749 20.8252 32.2058C20.2458 32.0611 19.7441 31.6981 19.4241 31.1922C19.2713 30.9509 19.1723 30.6525 18.9742 30.0561Z" stroke="#EB8C43" stroke-width="1.75"/>
    <path d="M27.8608 32.2749L27.71 33.0293C27.545 33.8542 27.4625 34.2666 27.2776 34.5926C26.9919 35.0965 26.5287 35.4761 25.9785 35.6575C25.6227 35.7749 25.2021 35.7749 24.3608 35.7749C23.5196 35.7749 23.099 35.7749 22.7431 35.6575C22.1929 35.4761 21.7298 35.0965 21.444 34.5926C21.2592 34.2666 21.1767 33.8542 21.0117 33.0293L20.8608 32.2749" stroke="#EB8C43" stroke-width="1.75"/>
    <path d="M24.3608 28.7752V22.9419" stroke="#EB8C43" stroke-width="1.75" stroke-linecap="round" stroke-linejoin="round"/>
</svg>
